<?xml version="1.0" encoding="UTF-8" standalone="no"?>
<svg width="77px" height="98px" viewBox="0 0 77 98" version="1.1" xmlns="http://www.w3.org/2000/svg" xmlns:xlink="http://www.w3.org/1999/xlink" xmlns:sketch="http://www.bohemiancoding.com/sketch/ns">
    <g id="All-Pages" stroke="none" stroke-width="1" fill="none" fill-rule="evenodd" sketch:type="MSPage">
        <g id="Documentaries" sketch:type="MSLayerGroup" transform="translate(-601.000000, -50.000000)" stroke="#595959" fill="#D8D8D8">
            <g id="Nav-Copy" transform="translate(1.000000, 0.000000)" sketch:type="MSShapeGroup">
                <path d="M600.566127,88.5048249 C599.919294,65.220253 611.953825,57.1055823 613.859153,55.6681398 C625.062119,47.2162493 638.77616,52.8230196 638.77616,52.8230196 C638.77616,52.8230196 625.146625,54.416988 621.415515,65.7276692 C618.296535,74.8442057 626.727094,83.7694463 629.46919,86.1595927 C634.746498,90.7595539 646.239382,97.2152943 650.506975,100.881575 C651.886282,102.066534 665.345004,112.470418 656.673896,129.458173 C649.887438,140.042407 639.078821,141.240599 630.52879,138.063507 C615.650522,131.184081 618.296534,116.601312 618.296534,116.601312 C618.296534,116.601312 620.180802,132.240522 633.124959,132.240522 C646.069115,132.240522 646.069115,116.067869 646.069115,116.067869 C646.069115,116.067869 645.25728,121.207104 641.735957,124.58667 C639.685603,126.38605 637.655369,127.594074 633.124959,127.492539 C628.003611,126.803119 623.305876,121.946304 622.833891,114.75464 C622.65625,107.646522 626.004346,103.840092 629.569868,101.845329 C633.443718,100.025636 635.533627,100.70804 637.048427,101.380689 C640.170084,102.886333 640.14101,106.665811 640.14101,107.051718 C640.14101,107.693586 639.822134,112.470422 635.977623,112.046574 C633.011704,111.549836 633.124958,105.912022 633.124958,105.912022 C633.124958,105.912022 628.963911,112.470418 633.575813,114.981407 C638.187715,117.492396 642.003943,113.987632 643.123554,112.386861 C644.243166,110.786089 648.48023,101.393311 637.048428,96.5571021 C625.27127,92.1368494 617.500638,101.283697 615.908013,104.854464 C612.420991,112.59873 614.787132,127.492539 614.787132,127.492539 C614.787132,127.492539 601.21296,111.789397 600.566127,88.5048249 Z M675.411382,114.860778 C671.625006,157.466497 636.688365,145.431619 638.1429,145.431602 C641.999524,145.431559 657.638097,144.989744 665.428699,126.16776 C672.004192,106.523096 660.874501,96.2789027 658.812237,94.3665158 C654.491753,90.3600255 647.858342,86.7980052 639.388638,82.0558955 C630.918935,77.3137857 628.221261,72.4352464 628.390008,67.8892488 C628.707517,59.1333152 636.855139,57.0725098 639.388638,56.786928 C640.628811,56.6471328 644.704805,56.786928 646.657522,59.2683091 C649.246701,61.8744534 649.248473,65.4371317 649.246702,65.7711613 C649.244333,66.2178936 648.670001,72.0409475 643.832688,70.7724483 C638.81773,68.8698048 642.98504,64.2460916 642.98504,64.2460916 C642.98504,64.2460916 637.610937,65.2028371 637.126344,70.2487765 C637.004268,71.5199157 637.290926,73.2055039 638.358603,74.4956112 C639.244761,75.566383 640.757956,76.3211586 642.211697,76.7369565 C644.538465,77.4024569 647.732567,77.1596234 649.915933,76.3791678 C651.249213,75.9025797 651.977193,75.1564512 652.566511,74.4956117 C654.765224,71.6572526 654.856227,63.2391495 654.856227,63.2391495 C654.856227,63.2391495 677.445829,83.8639502 675.411382,114.860778 Z" id="Logo"></path>
            </g>
        </g>
    </g>
</svg>
